PathFileType	4	(X/Y/Z)	D:/Dropbox/2017/2017-10 SOFAMEA OpenSim seminar/OpenSim workshop LucaClement/Hands-on_Paris2017_Luca/For Participants/3_Scaling/transformed_Static_for_scaling.trc	
DataRate	CameraRate	NumFrames	NumMarkers	Units	OrigDataRate	OrigDataStartFrame	OrigNumFrames	
120.00	120.00	4	47	mm	120.00	523	697	
Frame#	Time	Sternum			Neck			RShoulder			LShoulder			Xiphoid			Thoracic			RAsis			LAsis			RPsis			LPsis			LThighSuperior			LThighInferior			LThighLateral			LKneeLateral			LKneeMedial			LShankSuperior			LShankInferior			LShankLateral			LAnkleLateral			LAnkleMedial			RThighSuperior			RThighInferior			RThighLateral			RKneeLateral			RShankSuperior			RShankInferior			RShankLateral			RAnkleLateral			RankleMedial			RHeel			RToe			RMidfootMedial			RMidfootLateral			RHindfoot			RMidfootSuperior			RToeMedial			RToeLateral			LHeel			LToe			LMidfootMedial			LMidfootLateral			LHindfoot			LMidfootSuperior			LToeMedial			LToeLateral			RKneeMedial			Sacral			
		X1	Y1	Z1	X2	Y2	Z2	X3	Y3	Z3	X4	Y4	Z4	X5	Y5	Z5	X6	Y6	Z6	X7	Y7	Z7	X8	Y8	Z8	X9	Y9	Z9	X10	Y10	Z10	X11	Y11	Z11	X12	Y12	Z12	X13	Y13	Z13	X14	Y14	Z14	X15	Y15	Z15	X16	Y16	Z16	X17	Y17	Z17	X18	Y18	Z18	X19	Y19	Z19	X20	Y20	Z20	X21	Y21	Z21	X22	Y22	Z22	X23	Y23	Z23	X24	Y24	Z24	X25	Y25	Z25	X26	Y26	Z26	X27	Y27	Z27	X28	Y28	Z28	X29	Y29	Z29	X30	Y30	Z30	X31	Y31	Z31	X32	Y32	Z32	X33	Y33	Z33	X34	Y34	Z34	X35	Y35	Z35	X36	Y36	Z36	X37	Y37	Z37	X38	Y38	Z38	X39	Y39	Z39	X40	Y40	Z40	X41	Y41	Z41	X42	Y42	Z42	X43	Y43	Z43	X44	Y44	Z44	X45	Y45	Z45	X46	Y46	Z46	X47	Y47	Z47	

523	4.350	533.03137	1455.92505	-467.56247	379.63937	1572.39771	-457.24472	429.42606	1555.32324	-302.47467	405.73312	1553.56030	-602.82288	559.93420	1302.36938	-457.48169	290.56903	1352.09802	-452.33948	488.14212	1039.52795	-323.91193	501.36252	1044.69470	-604.80762	302.40216	1067.38574	-414.10370	301.24503	1066.87000	-516.47211	443.57825	873.86603	-659.44843	469.55511	643.07251	-640.91473	543.48260	747.69171	-587.72839	474.42206	558.10638	-643.67419	467.41937	565.00830	-501.50919	465.65051	405.80804	-661.41858	429.62714	204.96452	-643.20227	488.31650	294.43295	-602.46716	410.83734	124.38941	-643.62256	439.69363	125.29562	-558.13275	424.57553	846.65686	-287.55948	440.01367	610.47455	-311.18646	528.80219	764.59479	-340.22217	432.72769	545.58295	-310.03238	420.00183	448.92145	-304.35217	413.79471	194.53139	-335.94345	479.87454	318.83191	-367.93564	405.05325	120.05117	-339.47427	436.97726	137.48549	-425.81973	332.07593	79.65424	-394.69644	646.42334	62.75424	-351.54373	552.49689	49.35056	-414.52264	541.24414	43.55773	-295.50378	486.62152	43.62664	-309.83188	514.58850	110.84404	-364.42542	598.03918	50.17963	-403.95169	588.95557	48.36765	-301.01529	341.55737	83.19628	-590.99841	648.87201	74.04087	-642.76440	555.62970	50.74937	-578.47198	541.94165	47.19577	-694.87683	487.89734	46.50521	-680.06769	523.58875	112.69570	-625.57422	597.41241	51.56634	-586.79761	586.07404	56.67752	-690.04999	476.73380	543.28369	-446.28696	301.82361	1067.12793	-465.28790 
524	4.358	532.99200	1455.94592	-467.57056	379.62326	1572.38403	-457.33649	429.37488	1555.34705	-302.47333	405.70645	1553.56238	-602.84088	559.96997	1302.31494	-457.43332	290.27811	1351.98621	-451.92996	488.09692	1039.53040	-323.89633	501.32520	1044.71411	-604.82111	302.36966	1067.38965	-414.09930	301.26462	1066.88135	-516.46851	443.54211	873.86407	-659.46753	469.52740	643.06622	-640.91510	543.48090	747.67706	-587.70642	474.40356	558.08337	-643.64185	467.41785	565.01062	-501.50363	465.57437	405.82181	-661.40155	429.59085	204.96495	-643.17993	488.24600	294.29849	-602.60052	410.70322	124.42967	-643.53680	439.64331	125.22252	-557.97198	424.55212	846.64783	-287.56290	440.01523	610.49133	-311.18427	528.78522	764.60535	-340.20380	432.74731	545.56073	-310.05127	419.98419	448.92914	-304.34454	413.77515	194.57112	-335.85657	479.87143	318.84155	-367.94046	405.05789	120.03281	-339.47784	437.14972	137.36800	-425.81232	332.02701	79.56741	-394.86151	646.41577	62.73120	-351.62195	552.60809	49.11386	-413.73755	541.26746	43.53337	-295.51645	486.61331	43.65915	-309.79852	514.58588	110.87367	-364.42697	598.04810	50.17057	-403.97589	589.07257	48.08820	-301.43115	341.55481	83.20643	-590.96606	648.89899	74.00317	-642.79242	555.62970	50.75153	-578.46863	541.94305	47.19887	-694.87994	487.91727	46.52580	-680.06726	523.58856	112.68507	-625.55432	597.37866	51.55019	-586.77130	586.23560	56.92530	-690.12158	476.71445	543.29297	-446.28409	301.81714	1067.13550	-465.28391 
525	4.367	532.96918	1455.94714	-467.56509	379.62085	1572.47571	-457.13229	429.32693	1555.37988	-302.49518	405.66147	1553.54932	-602.84290	559.89325	1302.39307	-457.43097	290.50006	1352.09875	-452.28244	488.09457	1039.53845	-323.91461	501.32596	1044.71606	-604.82465	302.34976	1067.37476	-414.06128	301.24716	1066.86914	-516.47375	443.51944	873.87390	-659.44800	469.52646	643.06543	-640.91467	543.46881	747.69116	-587.75171	474.17810	558.06500	-643.59186	467.40054	564.97302	-501.54465	465.59387	405.82773	-661.39697	429.58029	204.96338	-643.17316	488.29083	294.42343	-602.51923	410.82846	124.43444	-643.62482	439.69904	125.32653	-558.11938	424.55167	846.64758	-287.56326	439.99847	610.50159	-311.19098	528.76154	764.59656	-340.15231	432.72876	545.58472	-310.02670	419.97284	448.92749	-304.34296	413.79449	194.53590	-335.94177	479.87274	318.84671	-367.94815	405.06329	120.02762	-339.49243	437.02948	137.50066	-425.84171	332.10275	79.51810	-394.69724	646.40198	62.73175	-351.61273	552.76373	49.47087	-414.65527	541.21606	43.46947	-295.54507	486.61957	43.65214	-309.83221	514.56836	110.84022	-364.43030	598.03912	50.17910	-403.95334	588.95422	48.38535	-301.01990	341.54202	83.19878	-590.96356	648.87854	74.04812	-642.77338	555.62720	50.77073	-578.47449	541.91992	47.19504	-694.84167	487.89764	46.54458	-680.07172	523.56158	112.69077	-625.58746	597.39679	51.55549	-586.80756	586.23041	56.83623	-690.03516	476.70972	543.29181	-446.29379	301.79846	1067.12195	-465.26752 
526	4.375	532.95380	1455.97949	-467.50687	379.52628	1572.44312	-457.12646	429.27045	1555.39270	-302.51190	405.65491	1553.53992	-602.85986	559.88837	1302.37659	-457.46161	290.47580	1352.07263	-452.31342	488.07776	1039.53955	-323.90689	501.29944	1044.69421	-604.82184	302.34854	1067.37463	-414.05859	301.20117	1066.87988	-516.48602	443.48227	873.87134	-659.46289	469.51639	643.06995	-640.93243	543.45636	747.69293	-587.75568	474.13269	558.08026	-643.52014	467.38409	564.99939	-501.55051	465.60135	405.80670	-661.39642	429.88956	204.92923	-643.40063	488.28970	294.45483	-602.51038	410.80093	124.42303	-643.64148	439.63785	125.19805	-558.02307	424.52826	846.65912	-287.55487	439.99634	610.49432	-311.18625	528.76782	764.60815	-340.20526	432.72522	545.58923	-310.04657	419.96936	448.93030	-304.36499	413.79538	194.53186	-335.94675	479.86874	318.85101	-367.96735	405.07928	120.01859	-339.51056	436.97083	137.47751	-425.83279	332.10510	79.69899	-394.48654	646.41486	62.75753	-351.57538	552.88513	49.17147	-413.94012	541.26221	43.53486	-295.54001	486.62216	43.63152	-309.83804	515.13464	110.38262	-365.33929	598.05170	50.20083	-403.96515	588.95709	48.39255	-301.03299	341.54504	83.19466	-590.96692	648.90308	74.04073	-642.77533	555.64435	50.76579	-578.43018	541.91718	47.19217	-694.83710	487.91312	46.54792	-680.07324	523.55505	112.69778	-625.58600	597.40820	51.56412	-586.81873	586.09503	56.79335	-690.16663	476.71396	543.29797	-446.28085	301.77484	1067.12720	-465.27231 
